<?xml version="1.0" encoding="utf-8"?>
<!-- Generator: Adobe Illustrator 23.1.1, SVG Export Plug-In . SVG Version: 6.00 Build 0)  -->
<svg version="1.1" id="Vrstva_1" xmlns="http://www.w3.org/2000/svg" xmlns:xlink="http://www.w3.org/1999/xlink" x="0px" y="0px"
	 viewBox="0 0 70.9 70.9" style="enable-background:new 0 0 70.9 70.9;" xml:space="preserve">
<style type="text/css">
	.st0{fill:#FFFFFF;}
	.st1{fill:#C81428;}
	.st2{fill:#888B8D;}
</style>
<path class="st0" d="M0,0h70.9v70.9H0V0z"/>
<path class="st1" d="M25,28.9h-6.5v17.5h-5.5V28.9H6.5v-4.7H25V28.9L25,28.9z M26.6,30.7c0-4.5,3.5-6.6,8.1-6.8V0H0v70.9h34.7V47
	c-5.3-0.3-8.7-2.9-8.8-7.5h5.5c0.2,2.2,1.7,3.2,4.3,3.2c1.8,0,3.6-0.7,3.6-2.3c0-1.8-1.8-2.1-4.8-2.9C30.7,36.5,26.6,35.4,26.6,30.7
	"/>
<path class="st2" d="M65.7,46.5h-6.2L52.6,36v10.4h-5.5V24.3h5.5v10.5l6.9-10.4h6.2l-7.5,11L65.7,46.5L65.7,46.5z M36.1,0v23.9
	c4.5,0.2,7.9,2.4,8.1,6.8h-5.4C38.6,29,37.3,28,35.2,28c-1.9,0-3.2,0.8-3.2,2.1c0,1.6,1.7,1.9,5,2.7c4.1,1,7.8,2.2,7.8,7
	c0,4.6-3.8,7.1-8.8,7.2v23.9h34.7V0C70.9,0,36.1,0,36.1,0z"/>
</svg>
