<svg id="Layer_1" data-name="Layer 1" xmlns="http://www.w3.org/2000/svg" xmlns:xlink="http://www.w3.org/1999/xlink" width="809.84" height="577.05" viewBox="0 0 809.84 577.05">
  <defs>
    <style>
      .cls-1 {
        fill: #94ca54;
      }

      .cls-2 {
        fill: #5d9bd3;
      }

      .cls-3 {
        fill: #a5a4a4;
      }

      .cls-4 {
        fill: url(#linear-gradient);
      }
    </style>
    <linearGradient id="linear-gradient" x1="78.1" y1="196.22" x2="748.44" y2="196.22" gradientUnits="userSpaceOnUse">
      <stop offset="0" stop-color="#94ca54"/>
      <stop offset="1" stop-color="#f4f4f4"/>
    </linearGradient>
  </defs>
  <title>Artboard 1</title>
  <g>
    <g>
      <path class="cls-1" d="M125.38,411c-3.66-3.52-9-6.34-14.64-6.34-4.37,0-8.73,1.55-8.73,5.63s3.8,5.07,12.81,7c10.7,2.4,22.39,7.75,22.39,21.41,0,17.74-15.63,23.93-30,23.93-11.41,0-23.23-3.8-30.56-10.84l13-13.66A23.8,23.8,0,0,0,106.8,446c3.8,0,8.3-1.55,8.3-6.06s-4.36-5.77-13.93-8c-9.72-2.25-20.42-7.18-20.42-20.42,0-16.75,15.77-23.51,29.14-23.51,10.42,0,21.26,3.38,28.16,9.85Z"/>
      <path class="cls-1" d="M240.13,460.39v-38.3c0-8-1.83-14.78-10-14.78-7.89,0-11.69,7.32-11.69,15.2v37.88H195.36v-40c0-8-3.1-13.09-10-13.09-7.32,0-11.54,6.62-11.54,15.06v38H150.59V390.27H173V400h.28c3.24-5.92,10.42-11.69,21-11.69,10.14,0,17.18,4.36,21.12,12,4.65-7.32,12-12,22.39-12,19,0,25.48,15.49,25.48,28.72v43.37Z"/>
      <path class="cls-1" d="M276.89,399.84c8.16-7.74,19.85-11.82,31.25-11.82,23.52,0,32.25,11.54,32.25,37v35.34H319.27v-7.46h-.43c-3.52,5.77-11.54,9.15-19.85,9.15-11.12,0-25.48-5.49-25.48-22,0-20.27,24.64-23.65,45.05-23.65v-1.13c0-6.9-5.49-10.13-12.67-10.13-6.62,0-13.09,3.23-17.32,7.18Zm42.38,30h-3c-10.14,0-21.54,1.27-21.54,9.58,0,5.35,5.35,7.18,10,7.18,9.3,0,14.51-5.63,14.51-14.36Z"/>
      <path class="cls-1" d="M398.74,409.14a22.24,22.24,0,0,0-5.91-.71c-12.39,0-16.48,10.14-16.48,15.91v36.05H353.26V390.27h22.25v10.14h.28a21.17,21.17,0,0,1,19-12.11,16.47,16.47,0,0,1,4.93.56Z"/>
      <path class="cls-1" d="M442.33,407.59v26.75c0,6.48,2.11,9.86,8.73,9.86a20.11,20.11,0,0,0,6.76-1.13L458.1,460a43.53,43.53,0,0,1-13.38,2.12c-18.73,0-24.92-10-24.92-24.92V407.59H408.54V390.27h11.12V371.83h22.67v18.44H458.8v17.32Z"/>
      <path class="cls-2" d="M519.91,462.36c-8.59,0-16.9-3.66-21.26-9.71h-.28v41.53H475.28V390.27h22v8.59h.42a27.86,27.86,0,0,1,22.39-10.56c20.42,0,33.23,17.18,33.23,36.75S541,462.36,519.91,462.36Zm-5.49-55.19c-10.42,0-16.9,9.15-16.9,18,0,9.15,6.48,18,16.9,18,11,0,16.47-9,16.47-18.16S525.4,407.17,514.42,407.17Z"/>
      <path class="cls-2" d="M565.25,460.39V353.94h23.37V460.39Z"/>
      <path class="cls-2" d="M603.12,399.84C611.29,392.1,623,388,634.38,388c23.52,0,32.25,11.54,32.25,37v35.34H645.51v-7.46h-.43c-3.52,5.77-11.54,9.15-19.85,9.15-11.12,0-25.48-5.49-25.48-22,0-20.27,24.63-23.65,45-23.65v-1.13c0-6.9-5.49-10.13-12.67-10.13-6.62,0-13.09,3.23-17.32,7.18Zm42.39,30h-3c-10.14,0-21.54,1.27-21.54,9.58,0,5.35,5.35,7.18,10,7.18,9.3,0,14.51-5.63,14.51-14.36Z"/>
      <path class="cls-2" d="M727,460.39v-38.3c0-7.74-2.11-14.78-10.42-14.78s-12.39,7-12.39,15.06v38H681V390.27h22.39V400h.28c3.24-6.2,11.26-11.69,21-11.69,18.86,0,25.62,14.64,25.62,28.72v43.37Z"/>
    </g>
    <path class="cls-3" d="M669.92,325.56v-6.3c0-.1,0-.19,0-.29a12.75,12.75,0,0,0-12.75-12.75H619A12.75,12.75,0,0,0,606.26,319c0,.1,0,.19,0,.29v6.3H595.58v-21c0-.09,0-.19,0-.29a12.75,12.75,0,0,0-12.75-12.75H554.73A12.75,12.75,0,0,0,542,304.27c0,.1,0,.2,0,.29v21H529.36V249.38a2.77,2.77,0,0,0,0-.3,12.75,12.75,0,0,0-12.75-12.75H478.21a12.75,12.75,0,0,0-12.76,12.75c0,.11,0,.2,0,.3v76.18H453.34v-190a2.85,2.85,0,0,0,0-.29,12.75,12.75,0,0,0-12.75-12.75H404.24a12.75,12.75,0,0,0-12.75,12.75c0,.1,0,.19,0,.29v190H379V187a2.85,2.85,0,0,0,0-.29,12.75,12.75,0,0,0-12.75-12.75H342.89a12.75,12.75,0,0,0-12.75,12.75c0,.1,0,.19,0,.29V325.56h-11.5v-66.7c0-.1,0-.19,0-.29a12.76,12.76,0,0,0-12.76-12.76H267.51a12.75,12.75,0,0,0-12.75,12.76,2.85,2.85,0,0,0,0,.29v66.7H201.16V290.68a12.71,12.71,0,0,0,18.72-11.26c.2,0,.39.06.59.06a12.77,12.77,0,0,0,4.08-24.88,12.78,12.78,0,0,0-17.86-17.76,12.72,12.72,0,0,0-24.3.2A12.76,12.76,0,0,0,164.3,254.6a12.77,12.77,0,0,0,4.08,24.88c.2,0,.39-.05.59-.06a12.8,12.8,0,0,0,12.8,12.77,12.65,12.65,0,0,0,6.2-1.67v35H89.79v9.1H735v-9.1Z"/>
    <path class="cls-4" d="M684,182.19c-59.83-73.93-152.08-122-266.77-124.29v-.12c-1.32,0-2.61,0-3.92.06s-2.61-.06-3.92-.06v.12c-114.69,2.33-206.94,50.36-266.77,124.29C81.39,257.79,78.1,334.66,78.1,334.66H93c1.51-55.12,26.8-124.41,88.75-177.25C269.23,82.8,379.4,75.52,409.36,75H410l3.32,0,3.32,0h.59c30,.55,140.13,7.83,227.59,82.44,62,52.84,87.23,122.13,88.75,177.25h14.92S745.15,257.79,684,182.19Z"/>
    <rect class="cls-1" x="78.1" y="473.48" width="384.35" height="11.13"/>
  </g>
</svg>
